<?xml version="1.0" encoding="UTF-8"?>
<svg version="1.1" xmlns="http://www.w3.org/2000/svg" width="128" height="128">
<path d="M0 0 C1.75880432 1.16630554 1.75880432 1.16630554 3.52954102 2.7956543 C4.22500031 3.43473724 4.92045959 4.07382019 5.63699341 4.73226929 C10.45180214 9.35294605 15.18884327 14.04603351 19.90234375 18.76953125 C21.03180112 19.89831373 22.16140679 21.02694784 23.29115295 22.15544128 C25.64177288 24.50459656 27.99059853 26.85552695 30.33813477 29.20776367 C33.34984833 32.22521344 36.36608298 35.23809799 39.38364315 38.24969959 C41.70937067 40.57182171 44.03272141 42.89631005 46.35534859 45.22153282 C47.46741884 46.33427036 48.58023298 47.44626497 49.69379997 48.55750465 C51.24222409 50.10339836 52.78742241 51.65244491 54.33178711 53.20239258 C55.21144638 54.08284744 56.09110565 54.96330231 56.99742126 55.87043762 C59.96391461 59.0250365 60.54371651 61.44673588 60.45597839 65.81846619 C59.90243311 68.46678852 59.02998744 69.54547787 57.2043457 71.52954102 C56.56526276 72.22500031 55.92617981 72.92045959 55.26773071 73.63699341 C50.64705395 78.45180214 45.95396649 83.18884327 41.23046875 87.90234375 C40.10168627 89.03180112 38.97305216 90.16140679 37.84455872 91.29115295 C35.49540344 93.64177288 33.14447305 95.99059853 30.79223633 98.33813477 C27.77478656 101.34984833 24.76190201 104.36608298 21.75030041 107.38364315 C19.42817829 109.70937067 17.10368995 112.03272141 14.77846718 114.35534859 C13.66572964 115.46741884 12.55373503 116.58023298 11.44249535 117.69379997 C9.89660164 119.24222409 8.34755509 120.78742241 6.79760742 122.33178711 C5.91715256 123.21144638 5.03669769 124.09110565 4.12956238 124.99742126 C0.9749635 127.96391461 -1.44673588 128.54371651 -5.81846619 128.45597839 C-8.46678852 127.90243311 -9.54547787 127.02998744 -11.52954102 125.2043457 C-12.22500031 124.56526276 -12.92045959 123.92617981 -13.63699341 123.26773071 C-18.45180214 118.64705395 -23.18884327 113.95396649 -27.90234375 109.23046875 C-29.03180112 108.10168627 -30.16140679 106.97305216 -31.29115295 105.84455872 C-33.64177288 103.49540344 -35.99059853 101.14447305 -38.33813477 98.79223633 C-41.34984833 95.77478656 -44.36608298 92.76190201 -47.38364315 89.75030041 C-49.70937067 87.42817829 -52.03272141 85.10368995 -54.35534859 82.77846718 C-55.46741884 81.66572964 -56.58023298 80.55373503 -57.69379997 79.44249535 C-59.24222409 77.89660164 -60.78742241 76.34755509 -62.33178711 74.79760742 C-63.65127602 73.47692513 -63.65127602 73.47692513 -64.99742126 72.12956238 C-67.96391461 68.9749635 -68.54371651 66.55326412 -68.45597839 62.18153381 C-67.90243311 59.53321148 -67.02998744 58.45452213 -65.2043457 56.47045898 C-64.56526276 55.77499969 -63.92617981 55.07954041 -63.26773071 54.36300659 C-58.64705395 49.54819786 -53.95396649 44.81115673 -49.23046875 40.09765625 C-48.10168627 38.96819888 -46.97305216 37.83859321 -45.84455872 36.70884705 C-43.49540344 34.35822712 -41.14447305 32.00940147 -38.79223633 29.66186523 C-35.77478656 26.65015167 -32.76190201 23.63391702 -29.75030041 20.61635685 C-27.42817829 18.29062933 -25.10368995 15.96727859 -22.77846718 13.64465141 C-21.66572964 12.53258116 -20.55373503 11.41976702 -19.44249535 10.30620003 C-17.89660164 8.75777591 -16.34755509 7.21257759 -14.79760742 5.66821289 C-13.91715256 4.78855362 -13.03669769 3.90889435 -12.12956238 3.00257874 C-8.49356511 -0.41660771 -4.85197737 -1.0141474 0 0 Z " fill="#EF594F" transform="translate(68,0)"/>
<path d="M0 0 C3.88643699 1.54392702 5.90386909 4.01386987 8.625 7.125 C12.09019829 10.83833352 12.09019829 10.83833352 16.69921875 12.515625 C18.40178326 12.42400718 20.10266908 12.2855469 21.796875 12.09375 C24 12 24 12 27.0625 13.875 C29 16 29 16 30 18 C29.85691406 18.98806641 29.85691406 18.98806641 29.7109375 19.99609375 C29.07333903 24.62980359 29.43632823 27.16395698 32.09375 31.10546875 C35.37755727 34.87558765 38.72169862 38.54881953 43.78125 39.55078125 C46.35799856 39.47341395 46.35799856 39.47341395 48.83203125 39.12890625 C51 39 51 39 54.0625 40.875 C57.06381136 44.16676085 57.3335441 46.49764865 57.29296875 50.9609375 C56.83745033 54.13134567 55.24684343 55.8192402 53 58 C49.51118574 59.74440713 45.80666824 59.56541186 42 59 C38.99865887 56.99910591 37.39214672 55.59704915 36.515625 52.02734375 C36.26137368 50.02698411 36.12777148 48.01240077 36 46 C35.49996599 41.96746769 33.47805347 40.10553778 30.625 37.3125 C29.83351563 36.52488281 29.04203125 35.73726562 28.2265625 34.92578125 C26.06683347 32.81037502 26.06683347 32.81037502 23 32 C23 43.22 23 54.44 23 66 C24.65 66.66 26.3 67.32 28 68 C30.57833269 71.00805481 31.00868872 72.51343154 30.9375 76.5 C29.92483745 80.28060685 28.70604174 82.211957 26 85 C22.79386153 86.60306924 19.47860003 86.48740461 16 86 C12.60109858 83.93110348 10.11062989 81.88720463 9 78 C9.08146506 73.51942165 9.54994565 71.54237319 12.4375 68.0625 C15 66 15 66 17 66 C17 54.78 17 43.56 17 32 C15.35 31.34 13.7 30.68 12 30 C10.1875 27.9375 10.1875 27.9375 9 25 C9.12157867 23.60184526 9.27009377 22.20591064 9.4375 20.8125 C9.61783959 17.21773077 9.1523084 16.18615471 6.8203125 13.3359375 C5.01497754 11.60220223 3.17034272 9.90827402 1.28515625 8.26171875 C-0.93230786 6.06699786 -1.90091646 5.09801211 -2 2 C-1.34 1.34 -0.68 0.68 0 0 Z " fill="#FEF8F7" transform="translate(44,15)"/>
<path d="M0 0 C0.495 0.99 0.495 0.99 1 2 C-4.88078191 9.0073931 -11.30069704 15.44720079 -17.76953125 21.90234375 C-18.89831373 23.03180112 -20.02694784 24.16140679 -21.15544128 25.29115295 C-23.50459656 27.64177288 -25.85552695 29.99059853 -28.20776367 32.33813477 C-31.22521344 35.34984833 -34.23809799 38.36608298 -37.24969959 41.38364315 C-39.57182171 43.70937067 -41.89631005 46.03272141 -44.22153282 48.35534859 C-45.33427036 49.46741884 -46.44626497 50.58023298 -47.55750465 51.69379997 C-49.10339836 53.24222409 -50.65244491 54.78742241 -52.20239258 56.33178711 C-53.08284744 57.21144638 -53.96330231 58.09110565 -54.87043762 58.99742126 C-58.02478206 61.96367534 -60.44572379 62.54247865 -64.81689453 62.45727539 C-67.47348611 61.90082314 -68.56362895 61.0145055 -70.5546875 59.18359375 C-71.2461084 58.54856934 -71.9375293 57.91354492 -72.64990234 57.25927734 C-77.33230371 52.75782895 -81.92730778 48.17471483 -86.5 43.5625 C-87.52320139 42.5342702 -88.54663733 41.50627374 -89.5703125 40.47851562 C-92.04957999 37.98835662 -94.52567538 35.49507167 -97 33 C-94 33 -94 33 -92.31762695 34.35766602 C-91.71394287 34.98342529 -91.11025879 35.60918457 -90.48828125 36.25390625 C-89.47411133 37.2893457 -89.47411133 37.2893457 -88.43945312 38.34570312 C-87.73755859 39.07724609 -87.03566406 39.80878906 -86.3125 40.5625 C-81.61624807 45.40952867 -76.89195161 50.09455235 -71.75073242 54.47241211 C-70 56 -70 56 -68.77075195 57.69750977 C-66.32587471 59.49585805 -64.07520986 59.43580246 -61.11020184 59.37618923 C-57.39303522 58.71352368 -55.16816235 56.21345112 -52.67578125 53.58398438 C-51.81083794 52.72079338 -51.81083794 52.72079338 -50.92842102 51.84016418 C-49.03684988 49.94304208 -47.17515899 48.01923077 -45.3125 46.09375 C-44.00289556 44.76921665 -42.6915075 43.44644465 -41.37841797 42.12536621 C-37.93444139 38.65090816 -34.51516732 35.15310056 -31.1005249 31.64984131 C-27.60899221 28.07633394 -24.09457744 24.52548907 -20.58203125 20.97265625 C-13.69879643 14.00373555 -6.84145102 7.00992767 0 0 Z " fill="#DD483D" transform="translate(127,66)"/>
<path d="M0 0 C1.75756836 1.16383362 1.75756836 1.16383362 3.52734375 2.79125977 C4.57051758 3.74985397 4.57051758 3.74985397 5.63476562 4.72781372 C10.46630741 9.36928311 15.2119182 14.09109186 19.9375 18.83984375 C21.06927864 19.97349143 22.2012812 21.10691559 23.33349609 22.24012756 C26.28822011 25.19863851 29.23992653 28.16014181 32.190979 31.12231445 C35.21271471 34.15434725 38.23734394 37.18349067 41.26171875 40.21289062 C47.17728805 46.13912967 53.08966729 52.06853842 59 58 C58.505 58.99 58.505 58.99 58 60 C56.6996582 58.69180298 56.6996582 58.69180298 55.37304688 57.35717773 C52.12533208 54.09122598 48.87419673 50.82869701 45.62207031 47.56713867 C44.22075867 46.16082925 42.82034964 44.75361978 41.42089844 43.34545898 C39.39760962 41.30990344 37.37098872 39.27771469 35.34375 37.24609375 C34.7288269 36.62600937 34.11390381 36.00592499 33.48034668 35.36705017 C29.72800228 31.61423342 25.84174072 28.08803019 21.82678223 24.61875916 C19.45327587 22.51553356 17.28386479 20.2629796 15.125 17.94140625 C14.28453125 17.06162109 13.4440625 16.18183594 12.578125 15.27539062 C10.84567226 13.45237785 9.1270439 11.61613623 7.421875 9.76757812 C2.48403417 4.33112579 2.48403417 4.33112579 -4.1875 1.99609375 C-9.24698064 3.32835453 -11.5844139 5.67040346 -15 9.5 C-15.58394531 10.12003906 -16.16789062 10.74007813 -16.76953125 11.37890625 C-18.19862832 12.9017146 -19.60201656 14.44857936 -21 16 C-21.66 15.34 -22.32 14.68 -23 14 C-20.87801168 11.85111324 -18.75260401 9.70581417 -16.625 7.5625 C-16.02171875 6.95083984 -15.4184375 6.33917969 -14.796875 5.70898438 C-14.21679688 5.12568359 -13.63671875 4.54238281 -13.0390625 3.94140625 C-12.23782959 3.13231812 -12.23782959 3.13231812 -11.42041016 2.30688477 C-8.13135333 -0.71929625 -4.22479369 -0.88257879 0 0 Z " fill="#F26E65" transform="translate(68,0)"/>
<path d="M0 0 C4.72899388 3.86917681 9.11269322 8.00302036 13.4375 12.3125 C13.98180664 12.85229492 14.52611328 13.39208984 15.08691406 13.94824219 C19 17.87627307 19 17.87627307 19 19 C15.9051939 20.71933672 13.54260049 21.39909686 10 21 C5.16696598 18.22940664 0.77059336 13.83303402 -2 9 C-2.39909686 5.45739951 -1.71933672 3.0948061 0 0 Z " fill="#E05349" transform="translate(75,34)"/>
<path d="M0 0 C0.66 0.66 1.32 1.32 2 2 C1.23618515 2.76048393 1.23618515 2.76048393 0.4569397 3.53633118 C-4.34240594 8.31563632 -9.13934162 13.09734828 -13.93358421 17.88177204 C-16.39840872 20.3413789 -18.86415443 22.80004722 -21.33203125 25.2565918 C-24.16943855 28.08105142 -27.00278808 30.90955062 -29.8359375 33.73828125 C-30.72243988 34.61962234 -31.60894226 35.50096344 -32.52230835 36.40901184 C-33.34300812 37.22963608 -34.16370789 38.05026031 -35.00927734 38.89575195 C-35.73319672 39.61745071 -36.45711609 40.33914948 -37.20297241 41.0827179 C-39.16800657 43.07403685 -39.16800657 43.07403685 -41 46 C-40.54120196 41.24862444 -39.60823483 38.9874161 -36.21459961 35.64697266 C-35.41384506 34.84659576 -34.61309052 34.04621887 -33.78807068 33.22158813 C-32.91828079 32.37760468 -32.04849091 31.53362122 -31.15234375 30.6640625 C-30.2659169 29.78471039 -29.37949005 28.90535828 -28.46620178 27.99935913 C-26.11587097 25.67224437 -23.75515126 23.3563895 -21.38885498 21.04553223 C-18.97348041 18.68145351 -16.57232969 16.30302309 -14.16992188 13.92578125 C-9.45958415 9.27054505 -4.73525943 4.62987638 0 0 Z " fill="#F37B75" transform="translate(41,18)"/>
<path d="M0 0 C2.65381294 1.70780082 4.82790509 3.71930035 7 6 C6.67 6.99 6.34 7.98 6 9 C4.046875 6.65625 4.046875 6.65625 2.09375 4.3125 C-0.53236849 2.66627647 -2.82067914 2.36906661 -5.90039062 2.48828125 C-9.95075187 3.47543906 -12.3079199 6.48160717 -15 9.5 C-15.58394531 10.12003906 -16.16789062 10.74007813 -16.76953125 11.37890625 C-18.19862832 12.9017146 -19.60201656 14.44857936 -21 16 C-21.66 15.34 -22.32 14.68 -23 14 C-20.87801168 11.85111324 -18.75260401 9.70581417 -16.625 7.5625 C-16.02171875 6.95083984 -15.4184375 6.33917969 -14.796875 5.70898438 C-14.21679688 5.12568359 -13.63671875 4.54238281 -13.0390625 3.94140625 C-12.23782959 3.13231812 -12.23782959 3.13231812 -11.42041016 2.30688477 C-8.15194098 -0.70035406 -4.2039528 -0.83777156 0 0 Z " fill="#F37870" transform="translate(68,0)"/>
<path d="M0 0 C5.99500997 4.96194855 11.46427037 10.3476624 16.9375 15.875 C17.81212891 16.75414063 18.68675781 17.63328125 19.58789062 18.5390625 C21.72757048 20.6904346 23.86486597 22.84411792 26 25 C25.67 25.99 25.34 26.98 25 28 C21.59071692 24.66492276 18.19144416 21.32007333 14.80102539 17.96582031 C13.6464926 16.82636568 12.48928047 15.68961916 11.3293457 14.55566406 C9.66164219 12.92438576 8.00384564 11.28358196 6.34765625 9.640625 C5.56794212 8.88413666 5.56794212 8.88413666 4.7724762 8.11236572 C2.22476648 5.56585764 0.37009657 3.67807311 0 0 Z " fill="#DF6053" transform="translate(0,66)"/>
<path d="M0 0 C0.33 0.66 0.66 1.32 1 2 C-5.82626992 10.15822503 -13.43799837 17.53279684 -21 25 C-21.33 24.01 -21.66 23.02 -22 22 C-14.74 14.74 -7.48 7.48 0 0 Z " fill="#DC4039" transform="translate(127,66)"/>
<path d="M0 0 C3.02977429 1.35231187 5.08472613 2.85480543 7.390625 5.23046875 C8.01420898 5.86557373 8.63779297 6.50067871 9.28027344 7.1550293 C9.9302832 7.82574463 10.58029297 8.49645996 11.25 9.1875 C15.84079249 13.86299959 20.40484368 18.45260869 25.484375 22.60546875 C27.25987862 24.23911512 28.60472828 26.03737382 30 28 C25.4434759 27.1381075 23.06829142 24.4672978 19.921875 21.25 C19.35043762 20.67668945 18.77900024 20.10337891 18.19024658 19.51269531 C16.98658718 18.30232352 15.78652607 17.08836416 14.58984375 15.87109375 C12.74994952 13.99994866 10.89950711 12.13977596 9.046875 10.28125 C7.87958043 9.10478935 6.71289224 7.92772665 5.546875 6.75 C4.99070496 6.18958008 4.43453491 5.62916016 3.86151123 5.05175781 C0 1.11716239 0 1.11716239 0 0 Z " fill="#DA5244" transform="translate(30,98)"/>
</svg>
