<svg width="24" height="24" viewBox="0 0 32 32" fill="none" xmlns="http://www.w3.org/2000/svg">
    <path
        d="M18.0499 16.287C18.0499 21.3055 14.0093 25.3737 9.02511 25.3737C4.04097 25.3737 0 21.3046 0 16.287C0 11.2694 4.04067 7.19995 9.02511 7.19995C14.0096 7.19995 18.0499 11.2685 18.0499 16.287ZM27.9504 16.287C27.9504 21.0108 25.9301 24.8418 23.4379 24.8418C20.9457 24.8418 18.9253 21.0108 18.9253 16.287C18.9253 11.5632 20.9454 7.73225 23.4376 7.73225C25.9298 7.73225 27.9501 11.562 27.9501 16.287H27.9504ZM32 16.287C32 20.5184 31.2896 23.9507 30.4129 23.9507C29.5363 23.9507 28.8262 20.5193 28.8262 16.287C28.8262 12.0547 29.5366 8.62329 30.4129 8.62329C31.2892 8.62329 32 12.0544 32 16.287Z"
        fill="#fff"></path>
</svg>