<svg width="40" height="40" viewBox="0 0 40 40" fill="none" xmlns="http://www.w3.org/2000/svg">
<path d="M18.6915 0.0312467C18.6056 0.0390585 18.3322 0.0663995 18.0861 0.0859289C12.4109 0.597598 7.09501 3.6598 3.72815 8.36637C1.85334 10.9833 0.654235 13.9518 0.201154 17.096C0.0410137 18.1935 0.0214844 18.5177 0.0214844 20.0059C0.0214844 21.494 0.0410137 21.8182 0.201154 22.9157C1.28699 30.4189 6.62631 36.723 13.8678 39.0587C15.1645 39.4766 16.5316 39.7617 18.0861 39.9336C18.6915 40 21.3085 40 21.9139 39.9336C24.5972 39.6368 26.8704 38.9728 29.1124 37.8283C29.4561 37.6526 29.5225 37.6057 29.4756 37.5667C29.4444 37.5432 27.9797 35.5786 26.2221 33.2038L23.0271 28.8878L19.0235 22.9626C16.8206 19.7051 15.0083 17.0413 14.9927 17.0413C14.9771 17.0374 14.9614 19.67 14.9536 22.8845C14.9419 28.5128 14.938 28.7394 14.8677 28.8722C14.7661 29.0636 14.688 29.1417 14.524 29.2276C14.399 29.2901 14.2896 29.3018 13.6998 29.3018H13.0241L12.8445 29.1886C12.7273 29.1143 12.6413 29.0167 12.5828 28.9034L12.5007 28.7277L12.5085 20.8964L12.5203 13.0612L12.6413 12.9089C12.7038 12.8269 12.8366 12.7214 12.9304 12.6706C13.0905 12.5925 13.153 12.5847 13.8287 12.5847C14.6255 12.5847 14.7583 12.616 14.9653 12.8425C15.0239 12.905 17.1917 16.1703 19.7852 20.1035C22.3787 24.0367 25.9252 29.4073 27.6672 32.0438L30.831 36.8363L30.9911 36.7308C32.409 35.809 33.9088 34.4966 35.0962 33.1296C37.6233 30.2275 39.252 26.6888 39.7989 22.9157C39.959 21.8182 39.9785 21.494 39.9785 20.0059C39.9785 18.5177 39.959 18.1935 39.7989 17.096C38.713 9.59281 33.3737 3.28874 26.1322 0.953032C24.855 0.53901 23.4958 0.253881 21.9725 0.082023C21.5975 0.0429643 19.0157 -2.36556e-07 18.6915 0.0312467ZM26.8704 12.116C27.0579 12.2097 27.2102 12.3894 27.2649 12.5769C27.2962 12.6785 27.304 14.8501 27.2962 19.7442L27.2844 26.7669L26.0463 24.8687L24.8042 22.9704V17.8654C24.8042 14.565 24.8198 12.7097 24.8433 12.6199C24.9058 12.4011 25.0425 12.2293 25.23 12.1277C25.3901 12.0457 25.4487 12.0379 26.0619 12.0379C26.64 12.0379 26.7415 12.0457 26.8704 12.116Z" fill="black"/>
<path d="M30.6357 36.9222C30.499 37.0081 30.456 37.0667 30.5771 37.0003C30.6631 36.9495 30.8037 36.8441 30.7802 36.8402C30.7685 36.8402 30.7021 36.8792 30.6357 36.9222ZM30.3662 37.0979C30.2959 37.1526 30.2959 37.1565 30.3818 37.1136C30.4287 37.0901 30.4678 37.0628 30.4678 37.055C30.4678 37.0237 30.4482 37.0315 30.3662 37.0979ZM30.1709 37.2151C30.1006 37.2698 30.1006 37.2737 30.1865 37.2307C30.2334 37.2073 30.2725 37.18 30.2725 37.1722C30.2725 37.1409 30.2529 37.1487 30.1709 37.2151ZM29.9756 37.3323C29.9053 37.387 29.9053 37.3909 29.9912 37.3479C30.0381 37.3245 30.0772 37.2971 30.0772 37.2893C30.0772 37.2581 30.0576 37.2659 29.9756 37.3323ZM29.6788 37.4885C29.5304 37.5667 29.5382 37.5979 29.6866 37.5237C29.753 37.4885 29.8038 37.4534 29.8038 37.4456C29.8038 37.4182 29.7999 37.4221 29.6788 37.4885Z" fill="black"/>
</svg>
