<?xml version="1.0" encoding="UTF-8"?>
<svg version="1.1" xmlns="http://www.w3.org/2000/svg" width="540" height="557">
<path d="M0 0 C1.34570572 0.00081573 1.34570572 0.00081573 2.71859741 0.00164795 C41.44042334 0.10919304 81.37528993 10.19253001 111.0625 36.375 C111.866875 37.07109375 112.67125 37.7671875 113.5 38.484375 C116.06097939 40.74123809 118.56869905 43.0441678 121.0625 45.375 C121.97257812 46.21933594 122.88265625 47.06367187 123.8203125 47.93359375 C134.18319335 57.87791813 141.94771902 68.43315385 146.0625 82.375 C146.38089844 83.4475 146.69929687 84.52 147.02734375 85.625 C165.12424445 161.68202047 120.10901681 256.5920819 83.0625 320.375 C83.8875 320.22353516 84.7125 320.07207031 85.5625 319.91601562 C127.73553278 312.26744662 127.73553278 312.26744662 138.0625 318.375 C144.65297185 323.23062705 150.05118175 327.95888213 151.38867188 336.44433594 C151.57237669 338.68210279 151.63217393 340.8798001 151.625 343.125 C151.62258301 343.91559814 151.62016602 344.70619629 151.61767578 345.52075195 C151.39491043 352.64560332 149.35575304 357.65399072 145.0625 363.375 C144.65257812 363.97957031 144.24265625 364.58414062 143.8203125 365.20703125 C127.12313194 387.34894461 96.41288446 396.94731499 70.34375 400.9453125 C64.4432163 401.63678129 58.49548766 401.73864712 52.5625 401.9375 C51.35851562 401.98068359 50.15453125 402.02386719 48.9140625 402.06835938 C45.96363807 402.17373168 43.01313929 402.27585903 40.0625 402.375 C39.99256836 403.53620361 39.92263672 404.69740723 39.85058594 405.89379883 C35.37172077 479.21013885 35.37172077 479.21013885 22.0625 506.375 C21.55074219 507.4371875 21.03898437 508.499375 20.51171875 509.59375 C9.71670211 530.83635746 -7.60306485 544.51051546 -29.8671875 552.0546875 C-31.22378045 552.49533968 -32.58054609 552.93546062 -33.9375 553.375 C-35.13632812 553.79007813 -36.33515625 554.20515625 -37.5703125 554.6328125 C-47.49394065 557.54673206 -57.41458734 557.82390536 -67.6875 557.9375 C-68.39260712 557.95230408 -69.09771423 557.96710815 -69.82418823 557.98236084 C-85.80700416 558.26162392 -99.83460983 553.13501798 -111.6875 542.125 C-141.51981165 510.08552448 -139.14362051 457.89879536 -140.9375 417.375 C-141.61554688 417.64054687 -142.29359375 417.90609375 -142.9921875 418.1796875 C-154.31760021 422.47769731 -164.32484598 423.76606047 -176.4375 423.75 C-177.09780212 423.74978851 -177.75810425 423.74957703 -178.43841553 423.74935913 C-195.83203944 423.69386156 -214.24958174 421.28669967 -228.12109375 409.8046875 C-230.27835163 408.10671678 -232.56477376 406.75061144 -234.9375 405.375 C-235.56914062 405.83390625 -236.20078125 406.2928125 -236.8515625 406.765625 C-248.90943421 415.03586554 -261.54835726 418.11500792 -276.03125 415.90234375 C-295.93552954 411.61881967 -310.79150371 395.7425667 -321.73486328 379.33618164 C-334.1250508 359.82966224 -343.30923418 338.10361355 -350.9375 316.375 C-351.54537354 314.66038574 -351.54537354 314.66038574 -352.16552734 312.91113281 C-377.633655 240.52803316 -409.10991269 142.90237138 -374.9375 69.375 C-361.77877643 43.05755286 -340.64532484 24.34152085 -312.9375 14.375 C-275.30598254 2.26830586 -230.60666486 4.82609288 -193.4375 17.53515625 C-180.94041982 22.31354314 -180.94041982 22.31354314 -168.32250977 20.24755859 C-165.74268103 18.76052681 -163.26098525 17.15420354 -160.78808594 15.49658203 C-146.04690576 6.56241558 -125.21778059 5.87431397 -108.49902344 6.03881836 C-105.93913211 6.06248491 -103.38028653 6.05933729 -100.8203125 6.05273438 C-92.71059471 6.06839433 -84.79323202 6.38911411 -76.75 7.45703125 C-70.92398545 8.22679707 -65.71419881 8.58395305 -59.9375 7.375 C-59.05690918 7.2011377 -58.17631836 7.02727539 -57.26904297 6.84814453 C-53.31424953 6.03719531 -49.37499751 5.16141971 -45.43554688 4.27929688 C-30.26078418 0.99159617 -15.47619836 -0.0354782 0 0 Z " fill="#FBFBFC" transform="translate(388.9375,-0.37499999999999994)"/>
<path d="M0 0 C0.735103 -0.00988449 1.47020599 -0.01976898 2.22758484 -0.029953 C33.37245972 -0.36245326 33.37245972 -0.36245326 48.14453125 4.23828125 C49.02705566 4.5120459 49.90958008 4.78581055 50.81884766 5.06787109 C74.05758423 12.50765401 94.1537534 23.85323041 111.68554688 40.83496094 C113.1268047 42.22123102 114.59653685 43.57769818 116.06640625 44.93359375 C130.06023041 58.06440356 140.53316512 74.19343637 149.14453125 91.23828125 C149.47485352 91.89183594 149.80517578 92.54539062 150.14550781 93.21875 C155.14453125 103.2478146 155.14453125 103.2478146 155.14453125 108.23828125 C154.04165771 108.26801025 154.04165771 108.26801025 152.91650391 108.29833984 C149.53386498 108.39453115 146.15176588 108.50382382 142.76953125 108.61328125 C141.61324219 108.64421875 140.45695313 108.67515625 139.265625 108.70703125 C124.84971918 109.19570602 111.55780397 111.90467909 100.58203125 121.98828125 C94.75580752 128.43963629 91.35727061 136.54433272 91.14453125 145.23828125 C91.09425781 146.38941406 91.04398438 147.54054687 90.9921875 148.7265625 C89.86402424 184.63080581 109.7715321 218.91595333 127.23828125 249.1171875 C129.8501648 253.6583801 132.23277341 258.27655182 134.51953125 262.98828125 C139.02582465 272.22821258 144.32789176 280.52267325 150.859375 288.4609375 C152.14453125 290.23828125 152.14453125 290.23828125 152.14453125 292.23828125 C151.48066406 292.5528125 150.81679688 292.86734375 150.1328125 293.19140625 C141.04004482 297.5984119 136.02504624 301.44322025 132.078125 310.75390625 C130.75760317 315.68238104 130.65117785 320.53138051 130.39453125 325.61328125 C129.56250231 339.3328676 127.94406637 352.91979967 126.20703125 366.55078125 C126.07969604 367.55155701 125.95236084 368.55233276 125.82116699 369.58343506 C125.06807132 375.48276494 124.30276567 381.38044602 123.53134155 387.27740479 C123.13650055 390.29975304 122.74433866 393.3224393 122.3527832 396.34521484 C113.76986722 462.53971813 113.76986722 462.53971813 98.14453125 476.23828125 C84.34937463 486.16357562 67.95750644 490.58973367 51.14453125 490.61328125 C50.22414063 490.63777344 49.30375 490.66226562 48.35546875 490.6875 C37.65198239 490.732726 30.07554355 487.0669137 22.40234375 479.73046875 C18.93224814 475.9001556 16.47143828 471.83337211 14.14453125 467.23828125 C13.76683594 466.55507813 13.38914062 465.871875 13 465.16796875 C6.96746246 453.28364387 6.48172208 438.23656076 5.4765625 425.12109375 C5.41330088 424.32142307 5.35003925 423.5217524 5.28486061 422.69784927 C4.22248348 408.95861845 3.88490258 395.25739469 3.84375 381.48046875 C3.84053867 380.52357399 3.83732735 379.56667923 3.83401871 378.58078766 C3.80950235 369.74745125 3.81753304 360.91432109 3.85961914 352.08105469 C3.88149214 347.1675666 3.87415098 342.25480511 3.84916115 337.34134293 C3.84560745 335.50354875 3.85301132 333.66569433 3.87241173 331.82799911 C3.99293904 320.24142792 3.48068452 310.43932041 -4.59809875 301.25778198 C-11.36134984 294.71152974 -19.70079404 292.62052237 -28.85546875 292.23828125 C-28.28195473 285.72024891 -26.13397834 280.0676435 -23.79296875 273.98828125 C-23.39247314 272.93286133 -22.99197754 271.87744141 -22.5793457 270.79003906 C-20.0314407 264.13146045 -17.34537117 257.54327983 -14.54296875 250.98828125 C-6.59532246 232.29473882 -3.5762825 215.10803008 -3.60546875 194.86328125 C-3.60649597 193.84735901 -3.60649597 193.84735901 -3.60754395 192.81091309 C-3.65365791 178.97085388 -4.65135271 165.70715046 -7.46142578 152.16650391 C-7.83165067 150.35483342 -8.17081997 148.53689533 -8.5078125 146.71875 C-10.04619565 139.04503997 -12.61616573 132.81950102 -16.85546875 126.23828125 C-17.24605469 125.63113281 -17.63664062 125.02398437 -18.0390625 124.3984375 C-23.85695503 116.48690891 -34.64184586 113.11965016 -43.85546875 111.23828125 C-52.10794474 110.56033951 -59.92003064 110.90005292 -67.85546875 113.23828125 C-69.15591778 113.58458332 -70.4567371 113.92949623 -71.7578125 114.2734375 C-79.88689551 116.48273532 -87.21598459 119.05138275 -94.6328125 123.1015625 C-96.85546875 124.23828125 -96.85546875 124.23828125 -98.85546875 124.23828125 C-100.78793902 91.7441515 -85.87594562 53.78319712 -64.91430664 29.51904297 C-48.1520424 10.80809464 -25.10797055 0.27699034 0 0 Z " fill="#336791" transform="translate(272.85546875,36.76171875)"/>
<path d="M0 0 C2.10145005 0.01071796 4.20204238 0.00003021 6.3034668 -0.01269531 C15.59156036 -0.02272514 24.48174189 0.80089301 33.66870117 2.26074219 C34.6301001 2.40672852 35.59149902 2.55271484 36.58203125 2.703125 C49.98092236 4.802887 62.77927933 8.06678714 75.66870117 12.26074219 C75.66870117 16.02648824 74.86788793 16.38568218 72.29370117 19.01074219 C41.44253597 52.90357157 33.46406895 102.03358911 33.64135742 146.19042969 C33.64395506 146.86880009 33.6465527 147.54717049 33.64922905 148.24609756 C33.67570228 154.64347516 33.71430943 161.04075491 33.76464844 167.43798828 C33.98286197 196.1863956 33.98286197 196.1863956 32.13378906 209.74414062 C31.52781272 214.32602155 31.32172622 218.83109722 31.35620117 223.44824219 C31.36111572 224.27718994 31.36603027 225.1061377 31.37109375 225.96020508 C31.81112055 249.3899396 41.53182809 268.80288248 57.66870117 285.26074219 C56.31697271 289.3445356 54.59933875 291.63757737 51.48120117 294.57324219 C47.2928481 298.62863167 43.4458138 302.82448637 39.66870117 307.26074219 C38.77587958 308.30145657 37.88261375 309.34178992 36.98901367 310.38183594 C32.80524972 315.25459276 28.62448831 320.12963435 24.47338867 325.03027344 C8.00191429 344.44536795 8.00191429 344.44536795 0.16479492 345.64355469 C-6.04472514 346.04082579 -10.13207038 345.05899179 -15.08129883 341.27636719 C-31.48271441 326.58343239 -41.47903606 305.80736927 -49.58129883 285.63574219 C-49.98600906 284.63791718 -49.98600906 284.63791718 -50.39889526 283.61993408 C-59.12684793 262.0137003 -66.05385826 239.68868112 -72.33129883 217.26074219 C-72.60723877 216.29426758 -72.88317871 215.32779297 -73.16748047 214.33203125 C-78.61886476 195.18683581 -82.86709223 175.82016104 -86.8984375 156.33551025 C-87.31085164 154.35874856 -87.735791 152.38461231 -88.16137695 150.41064453 C-91.45425663 134.77359247 -92.66610986 119.60001992 -92.59204102 103.63818359 C-92.5812281 100.86762026 -92.59205649 98.09769347 -92.60473633 95.32714844 C-92.61213575 86.44720114 -92.5027825 77.92734042 -90.33129883 69.26074219 C-90.17999512 68.5875293 -90.02869141 67.91431641 -89.87280273 67.22070312 C-84.82436246 45.29701738 -74.33576469 26.06347059 -55.33129883 13.26074219 C-37.87484818 3.12273225 -19.96527071 -0.12053803 0 0 Z " fill="#336791" transform="translate(124.331298828125,37.7392578125)"/>
<path d="M0 0 C1.34570572 0.00081573 1.34570572 0.00081573 2.71859741 0.00164795 C41.44042334 0.10919304 81.37528993 10.19253001 111.0625 36.375 C111.866875 37.07109375 112.67125 37.7671875 113.5 38.484375 C116.06097939 40.74123809 118.56869905 43.0441678 121.0625 45.375 C121.97257812 46.21933594 122.88265625 47.06367187 123.8203125 47.93359375 C134.18319335 57.87791813 141.94771902 68.43315385 146.0625 82.375 C146.38089844 83.4475 146.69929687 84.52 147.02734375 85.625 C165.12424445 161.68202047 120.10901681 256.5920819 83.0625 320.375 C83.8875 320.22353516 84.7125 320.07207031 85.5625 319.91601562 C127.73553278 312.26744662 127.73553278 312.26744662 138.0625 318.375 C144.65297185 323.23062705 150.05118175 327.95888213 151.38867188 336.44433594 C151.57237669 338.68210279 151.63217393 340.8798001 151.625 343.125 C151.62258301 343.91559814 151.62016602 344.70619629 151.61767578 345.52075195 C151.39491043 352.64560332 149.35575304 357.65399072 145.0625 363.375 C144.65257812 363.97957031 144.24265625 364.58414062 143.8203125 365.20703125 C127.12313194 387.34894461 96.41288446 396.94731499 70.34375 400.9453125 C64.4432163 401.63678129 58.49548766 401.73864712 52.5625 401.9375 C51.35851562 401.98068359 50.15453125 402.02386719 48.9140625 402.06835938 C45.96363807 402.17373168 43.01313929 402.27585903 40.0625 402.375 C39.99256836 403.53620361 39.92263672 404.69740723 39.85058594 405.89379883 C35.37172077 479.21013885 35.37172077 479.21013885 22.0625 506.375 C21.55074219 507.4371875 21.03898437 508.499375 20.51171875 509.59375 C9.71670211 530.83635746 -7.60306485 544.51051546 -29.8671875 552.0546875 C-31.22378045 552.49533968 -32.58054609 552.93546062 -33.9375 553.375 C-35.13632812 553.79007813 -36.33515625 554.20515625 -37.5703125 554.6328125 C-47.49394065 557.54673206 -57.41458734 557.82390536 -67.6875 557.9375 C-68.39260712 557.95230408 -69.09771423 557.96710815 -69.82418823 557.98236084 C-85.80700416 558.26162392 -99.83460983 553.13501798 -111.6875 542.125 C-141.51981165 510.08552448 -139.14362051 457.89879536 -140.9375 417.375 C-141.61554688 417.64054687 -142.29359375 417.90609375 -142.9921875 418.1796875 C-154.31760021 422.47769731 -164.32484598 423.76606047 -176.4375 423.75 C-177.09780212 423.74978851 -177.75810425 423.74957703 -178.43841553 423.74935913 C-195.83203944 423.69386156 -214.24958174 421.28669967 -228.12109375 409.8046875 C-230.27835163 408.10671678 -232.56477376 406.75061144 -234.9375 405.375 C-235.56914062 405.83390625 -236.20078125 406.2928125 -236.8515625 406.765625 C-248.90943421 415.03586554 -261.54835726 418.11500792 -276.03125 415.90234375 C-295.93552954 411.61881967 -310.79150371 395.7425667 -321.73486328 379.33618164 C-334.1250508 359.82966224 -343.30923418 338.10361355 -350.9375 316.375 C-351.54537354 314.66038574 -351.54537354 314.66038574 -352.16552734 312.91113281 C-377.633655 240.52803316 -409.10991269 142.90237138 -374.9375 69.375 C-361.77877643 43.05755286 -340.64532484 24.34152085 -312.9375 14.375 C-275.30598254 2.26830586 -230.60666486 4.82609288 -193.4375 17.53515625 C-180.94041982 22.31354314 -180.94041982 22.31354314 -168.32250977 20.24755859 C-165.74268103 18.76052681 -163.26098525 17.15420354 -160.78808594 15.49658203 C-146.04690576 6.56241558 -125.21778059 5.87431397 -108.49902344 6.03881836 C-105.93913211 6.06248491 -103.38028653 6.05933729 -100.8203125 6.05273438 C-92.71059471 6.06839433 -84.79323202 6.38911411 -76.75 7.45703125 C-70.92398545 8.22679707 -65.71419881 8.58395305 -59.9375 7.375 C-59.05690918 7.2011377 -58.17631836 7.02727539 -57.26904297 6.84814453 C-53.31424953 6.03719531 -49.37499751 5.16141971 -45.43554688 4.27929688 C-30.26078418 0.99159617 -15.47619836 -0.0354782 0 0 Z M-57.30859375 22.5546875 C-62.57604073 24.10691968 -66.55205852 24.79770749 -72 24.25 C-73.20785156 24.14429688 -74.41570312 24.03859375 -75.66015625 23.9296875 C-78.05470199 23.64968724 -80.41495631 23.29270107 -82.79150391 22.88305664 C-91.30207213 21.43335412 -99.56035876 21.02515307 -108.1875 21.0625 C-109.20713837 21.06573273 -109.20713837 21.06573273 -110.24737549 21.06903076 C-131.54030629 21.17716112 -150.83892049 25.13343986 -168.7890625 36.93359375 C-175.48192537 39.99769598 -182.54543677 36.29558854 -189.125 34.0625 C-198.88368628 30.84521522 -208.60574871 28.59734575 -218.7109375 26.79785156 C-220.96576176 26.36963275 -223.19135439 25.86347683 -225.42578125 25.33984375 C-259.72277242 17.61549702 -298.68175518 20.52707138 -329.10546875 38.82421875 C-350.32337574 52.39064178 -363.83197483 75.35890706 -369.1875 99.5625 C-369.82015475 102.49194454 -370.38655406 105.42921892 -370.9375 108.375 C-371.11627686 109.22408936 -371.29505371 110.07317871 -371.47924805 110.94799805 C-373.27862458 120.2238041 -373.29203884 129.40167358 -373.25 138.8125 C-373.24817719 139.65736969 -373.24635437 140.50223938 -373.24447632 141.37271118 C-373.20095738 153.35544574 -372.73819811 164.99243997 -370.43798828 176.78369141 C-369.8752686 179.69720687 -369.37205785 182.6182159 -368.87109375 185.54296875 C-363.29452606 217.5179648 -356.1303113 249.67982739 -345.88623047 280.49658203 C-344.96071025 283.30458085 -344.05608169 286.11885206 -343.15489197 288.93473816 C-324.54743586 350.67927125 -324.54743586 350.67927125 -281.9375 396.375 C-273.61991941 400.41040559 -264.98621199 400.6379041 -256.25 397.75 C-243.936493 392.73726736 -235.39143521 382.35144184 -227.26171875 372.20703125 C-224.07077603 368.31890777 -220.68056101 364.63180057 -217.27734375 360.9296875 C-214.71205044 358.12884972 -212.21306934 355.27736943 -209.72265625 352.41015625 C-207.60982975 350.00144157 -205.46194706 347.62607739 -203.3125 345.25 C-200.09900707 341.6904386 -196.96865299 338.09060689 -193.9375 334.375 C-189.11250801 335.93986227 -184.36813236 337.6883084 -179.62109375 339.47265625 C-175.39614412 340.8932725 -171.57644263 341.50393944 -167.125 341.4375 C-165.93970703 341.42396484 -165.93970703 341.42396484 -164.73046875 341.41015625 C-164.13878906 341.39855469 -163.54710937 341.38695312 -162.9375 341.375 C-167.98743486 350.58370474 -173.10955829 356.44066321 -182.9375 360.375 C-183.71053467 360.70209961 -184.48356934 361.02919922 -185.2800293 361.36621094 C-187.82588296 362.33262962 -190.22093865 362.95254336 -192.88671875 363.48828125 C-193.81806641 363.68486328 -194.74941406 363.88144531 -195.70898438 364.08398438 C-197.63195413 364.48197343 -199.55642906 364.87276716 -201.48242188 365.25585938 C-210.32342928 367.14558673 -219.24533815 370.0457544 -224.9375 377.484375 C-226.82483054 381.0526093 -226.57201241 383.37757185 -225.9375 387.375 C-221.72685819 395.63433586 -214.27825827 400.02051299 -205.9375 403.375 C-196.26470271 406.1249205 -186.89001368 406.869082 -176.875 406.8125 C-175.61623047 406.83248047 -174.35746094 406.85246094 -173.06054688 406.87304688 C-161.39409659 406.86702393 -151.16227299 404.14600708 -141 398.4375 C-140.39349609 398.11587891 -139.78699219 397.79425781 -139.16210938 397.46289062 C-134.98100565 395.18106115 -131.56647275 392.45970632 -127.9375 389.375 C-127.92941315 390.09400482 -127.92132629 390.81300964 -127.91299438 391.55380249 C-127.83376173 398.46241354 -127.74613451 405.37087745 -127.64997292 412.27927208 C-127.6008542 415.82758382 -127.55454889 419.37587702 -127.515625 422.92431641 C-128.56662521 479.3567942 -128.56662521 479.3567942 -104.28125 528.08984375 C-91.09704959 540.94443915 -77.5025576 543.88201686 -59.6640625 543.65625 C-51.98271344 543.40248888 -45.24751573 541.7123718 -37.9375 539.375 C-36.63988168 538.99548012 -35.34169808 538.61788787 -34.04296875 538.2421875 C-17.38297972 533.25593795 -2.54708553 523.87225396 6.0625 508.375 C16.09495256 487.87114203 18.09124862 465.65593113 21 443.3125 C21.13222961 442.2979776 21.26445923 441.2834552 21.4006958 440.2381897 C23.01024027 427.85714411 24.58601649 415.47469619 25.9375 403.0625 C26.05730225 401.98154053 26.17710449 400.90058105 26.30053711 399.78686523 C26.91184572 393.94667635 27.17202997 388.24702345 27.0625 382.375 C28.35607422 382.86033203 28.35607422 382.86033203 29.67578125 383.35546875 C35.71986695 385.06914659 42.02063704 384.71503781 48.25 384.6875 C49.25034775 384.68376877 49.25034775 384.68376877 50.27090454 384.67996216 C78.37038856 384.5180382 105.1381582 378.37408172 126.0390625 358.4453125 C133.04480777 351.32466451 133.04480777 351.32466451 135.5 341.9375 C135.42137789 338.26040444 135.16699321 337.51142169 132.8125 334.4375 C127.14156741 330.18430056 123.027666 329.87009489 116.0625 330.375 C112.73767124 330.90074945 109.47257879 331.64515423 106.1875 332.375 C97.18681099 334.18677086 88.42579784 334.78836269 79.25 334.8125 C78.07646973 334.82216797 76.90293945 334.83183594 75.69384766 334.84179688 C68.85064963 334.77498604 63.42226309 333.92296034 57.0625 331.375 C58.70857665 326.63097011 61.27681168 322.65706926 63.9375 318.4375 C70.41692271 307.98167626 76.32274117 297.25164202 82.0625 286.375 C82.52124512 285.50955566 82.97999023 284.64411133 83.45263672 283.75244141 C104.66337801 243.44668635 120.85676191 199.17568297 129.0625 154.375 C129.2378125 153.43527344 129.413125 152.49554688 129.59375 151.52734375 C134.09878504 127.16678391 138.84789667 94.58101072 124.2734375 72.6875 C122.28934482 70.15797945 120.21632688 67.76125425 118.0625 65.375 C117.32515625 64.5190625 116.5878125 63.663125 115.828125 62.78125 C97.71622361 42.04624565 73.81240075 28.80977386 47.625 21.125 C46.44852905 20.77393188 46.44852905 20.77393188 45.24829102 20.41577148 C30.64534031 16.32413054 15.99412947 14.79127436 0.875 14.875 C-0.33917603 14.87614807 -0.33917603 14.87614807 -1.57788086 14.87731934 C-20.4916742 14.94108616 -39.14938777 17.06433019 -57.30859375 22.5546875 Z " fill="#020202" transform="translate(388.9375,-0.37499999999999994)"/>
<path d="M0 0 C2.74466248 0.00850644 5.48723058 -0.0203832 8.23168945 -0.05200195 C33.20671628 -0.15108151 56.65071637 6.3533327 78.44458008 18.44604492 C79.4062207 18.97713867 80.36786133 19.50823242 81.35864258 20.05541992 C96.34043528 28.98262383 114.81875654 43.92959314 119.44458008 61.44604492 C120.9470548 67.84871564 120.68801863 74.34187468 120.69458008 80.88354492 C120.69558716 81.57556 120.69659424 82.26757507 120.69763184 82.9805603 C120.68026221 100.68046237 118.26365772 117.59830515 114.07958984 134.77807617 C113.57424087 136.90128019 113.09299297 139.0302171 112.62011719 141.16088867 C110.28489444 151.59688102 107.31056214 161.69518748 103.88208008 171.82104492 C103.49099564 172.98458496 103.49099564 172.98458496 103.0920105 174.17163086 C90.81000168 210.62092336 75.97366758 253.28907155 51.44458008 283.44604492 C50.45458008 283.44604492 49.46458008 283.44604492 48.44458008 283.44604492 C48.44458008 279.01535576 49.4239697 276.87535463 51.25708008 272.88354492 C60.8338116 251.38292635 59.69647889 228.09460141 56.94458008 205.13354492 C54.87462518 187.68230703 54.6624064 171.26454054 57.69067383 153.92651367 C61.15215001 133.94220035 61.42965848 114.91908324 52.44458008 96.44604492 C52.06446777 95.64972656 51.68435547 94.8534082 51.29272461 94.03295898 C32.27310874 54.74295103 2.84417269 25.55712452 -35.55541992 5.44604492 C-35.55541992 4.78604492 -35.55541992 4.12604492 -35.55541992 3.44604492 C-23.64446179 0.87544021 -12.17753231 -0.0572425 0 0 Z " fill="#346791" transform="translate(385.555419921875,30.553955078125)"/>
<path d="M0 0 C14.03925169 14.69224014 13.93147903 44.93478981 14 63.9375 C14.00547852 65.02651611 14.01095703 66.11553223 14.01660156 67.23754883 C13.83638742 87.64990756 7.25171474 104.8421728 -0.3828125 123.41650391 C-4.89502158 134.41919152 -8.99378769 145.38847107 -12.3125 156.8125 C-28.23596564 157.9612871 -39.56785148 151.85541762 -51.4375 142.05859375 C-62.09103035 132.18981006 -69.58370275 116.54747586 -70.48510742 102.03320312 C-70.54400299 99.06108907 -70.53660141 96.09741938 -70.5 93.125 C-70.49935547 92.11888672 -70.49871094 91.11277344 -70.49804688 90.07617188 C-70.46899581 85.17945361 -70.13577019 80.64430739 -69.3125 75.8125 C-68.32330101 66.50670206 -68.3164742 57.37184599 -68.671875 48.03125 C-68.76829273 44.86662493 -68.86030744 41.70189845 -68.95117188 38.53710938 C-69.02591361 36.37222156 -69.12191873 34.20797189 -69.23828125 32.04492188 C-70.14598823 14.492402 -70.14598823 14.492402 -67.12469482 10.07635498 C-63.70938537 6.87138281 -59.67008445 5.3270263 -55.3125 3.8125 C-53.87475077 3.14412484 -52.43921548 2.47092297 -51.0078125 1.7890625 C-49.82960937 1.34304687 -48.65140625 0.89703125 -47.4375 0.4375 C-46.24382812 -0.02398437 -45.05015625 -0.48546875 -43.8203125 -0.9609375 C-29.73612097 -5.88569935 -13.10926091 -8.65705909 0 0 Z " fill="#346791" transform="translate(241.3125,168.1875)"/>
<path d="M0 0 C0.37699222 7.14888945 -0.05632016 13.90717191 -1.07446289 20.97363281 C-4.16833536 42.52246343 -3.64531535 63.69859656 -1.08105469 85.27514648 C0.97790395 102.7600136 1.06367438 119.51809311 -6 136 C-6.66 136 -7.32 136 -8 136 C-8.24008789 135.50935059 -8.48017578 135.01870117 -8.72753906 134.51318359 C-13.58646484 124.6147793 -18.59131392 114.83221459 -23.9375 105.1875 C-34.27220744 86.38444295 -42.92326756 67.6213734 -49 47 C-49.21060059 46.31260742 -49.42120117 45.62521484 -49.63818359 44.91699219 C-52.46052069 34.93648052 -53.65445131 20.19590304 -48.5 10.9375 C-45.30536087 6.81202197 -41.77385059 4.07119444 -37 2 C-36.27941406 1.68289062 -35.55882812 1.36578125 -34.81640625 1.0390625 C-24.8741417 -2.42879938 -10.18637112 -2.92168368 0 0 Z " fill="#356892" transform="translate(430,161)"/>
<path d="M0 0 C5.15080307 2.1890913 7.75597834 6.02452575 10 11 C10.74386268 15.7111303 10.10607862 18.99701089 7.515625 23.046875 C-2.05945933 35.38590119 -14.58973366 43.27173714 -30 46 C-43.94437983 47.05068337 -58.41864614 46.81234282 -71 40 C-71 39.34 -71 38.68 -71 38 C-69.00112305 37.4128299 -67.00079844 36.83058883 -65 36.25 C-64.37496582 36.06808105 -63.74993164 35.88616211 -63.10595703 35.69873047 C-59.72999966 34.73047148 -56.35528419 33.83076063 -52.9296875 33.0546875 C-38.8457276 29.85001497 -27.50565403 25.02636763 -18.6875 13.1875 C-6.95352417 -2.07934967 -6.95352417 -2.07934967 0 0 Z " fill="#366993" transform="translate(252,345)"/>
<path d="M0 0 C16.31604803 7.68321838 34.10659886 5.67368335 51.46166992 3.02270508 C52.38955322 2.88372803 53.31743652 2.74475098 54.2734375 2.6015625 C55.09513428 2.47064209 55.91683105 2.33972168 56.76342773 2.20483398 C59.10248364 2.03759641 60.80258124 2.3441222 63.02734375 3.04296875 C47.49618408 16.84844401 26.62457238 23.69346826 6.02734375 24.04296875 C5.28419922 24.0672998 4.54105469 24.09163086 3.77539062 24.11669922 C1.27606906 24.19685674 -1.22244804 24.24915217 -3.72265625 24.29296875 C-4.50318359 24.31464111 -5.28371094 24.33631348 -6.08789062 24.35864258 C-11.86449805 24.38982452 -16.61064236 23.15527725 -21.97265625 21.04296875 C-22.43347545 14.07947856 -22.7163699 7.61453271 -17.97265625 2.04296875 C-11.49540266 -2.44028122 -7.08082766 -3.43525302 0 0 Z " fill="#366993" transform="translate(439.97265625,344.95703125)"/>
<path d="M0 0 C4.00449338 1.23036608 7.01186616 3.01186616 10 6 C10 9.06432153 9.77590471 11.14944557 7.66015625 13.46875 C2.82066336 17.53913033 -0.21420889 18.41515365 -6.390625 18.34375 C-10.55246423 17.79548375 -13.15164616 16.01404756 -16 13 C-18.11879535 9.82180697 -19.04855548 8.06822051 -18.875 4.25 C-16.20516899 -2.61527973 -6.05191258 -0.52844143 0 0 Z " fill="#FBFCFC" transform="translate(232,172)"/>
<path d="M0 0 C2.390625 1.52734375 2.390625 1.52734375 4 3 C3.90006685 7.19719217 2.98057633 9.46959463 0 12.3125 C-4.0499753 15.45787016 -7.89128785 16.55862461 -13 16 C-17.04203813 14.5427187 -19.58868667 12.61696999 -22 9 C-22.125 6.5625 -22.125 6.5625 -21 4 C-14.57146697 -0.5741485 -7.74827929 -1.13764418 0 0 Z " fill="#F9FAFC" transform="translate(412,168)"/>
</svg>
