<svg width="40" height="40" viewBox="0 0 40 40" fill="none" xmlns="http://www.w3.org/2000/svg">
<path d="M20.0004 8C14.669 8 11.3371 10.6667 10.0041 15.9997C12.0036 13.3329 14.336 12.3333 17.0014 12.9997C18.5224 13.38 19.6094 14.4842 20.8129 15.706C22.7728 17.6963 25.0413 19.9997 29.9967 19.9997C35.3276 19.9997 38.66 17.333 39.9925 11.9996C37.9935 14.6663 35.6611 15.6664 32.9951 15C31.4746 14.6198 30.3877 13.5156 29.1842 12.2938C27.2242 10.3035 24.9553 8 20.0004 8ZM10.0041 19.9997C4.6732 19.9997 1.34077 22.6665 0.00830078 27.9999C2.00726 25.3332 4.33971 24.333 7.00565 25C8.52612 25.3807 9.6131 26.4844 10.8166 27.7057C12.7765 29.696 15.0455 32 20.0004 32C25.3318 32 28.6637 29.3333 29.9967 23.9998C27.9972 26.6665 25.6648 27.6667 22.9993 26.9998C21.4784 26.62 20.3914 25.5153 19.1879 24.294C17.2279 22.3037 14.9595 19.9997 10.0041 19.9997Z" fill="#06B6D4"/>
</svg>
