<svg width="40" height="40" viewBox="0 0 40 40" fill="none" xmlns="http://www.w3.org/2000/svg">
<path d="M0 20V0H40V40H0" fill="#007ACC"/>
<path d="M8.77002 20.07V21.7H13.97V36.5001H17.6601V21.7H22.8601V20.1C22.8601 19.2 22.8601 18.47 22.8201 18.45C22.8201 18.42 19.6501 18.41 15.8001 18.41L8.80002 18.44V20.08L8.77002 20.07ZM32.1401 18.4C33.1601 18.64 33.9401 19.1 34.6401 19.83C35.0101 20.23 35.5601 20.93 35.6001 21.11C35.6001 21.17 33.8701 22.34 32.8201 22.99C32.7801 23.02 32.6201 22.85 32.4601 22.59C31.9401 21.85 31.4101 21.53 30.5801 21.47C29.3801 21.39 28.5801 22.02 28.5801 23.07C28.5801 23.39 28.6401 23.57 28.7601 23.83C29.0301 24.38 29.5301 24.71 31.0801 25.39C33.9401 26.6201 35.1801 27.4301 35.9301 28.5901C36.7801 29.8901 36.9701 31.9301 36.4001 33.4601C35.7601 35.1301 34.2001 36.2601 31.9701 36.6301C31.2701 36.7501 29.6701 36.7301 28.9201 36.6001C27.3201 36.3001 25.7901 35.5001 24.8501 34.4701C24.4801 34.0701 23.7701 33.0001 23.8101 32.9301L24.1901 32.6901L25.6901 31.8201L26.8201 31.1601L27.0801 31.5101C27.4101 32.0301 28.1501 32.7301 28.5801 32.9701C29.8801 33.6401 31.6201 33.5501 32.4801 32.7701C32.8501 32.4301 33.0101 32.0701 33.0101 31.5701C33.0101 31.1101 32.9401 30.9001 32.7101 30.5501C32.3901 30.1101 31.7501 29.7501 29.9501 28.9501C27.8801 28.0701 27.0001 27.5101 26.1801 26.6501C25.7101 26.1301 25.2801 25.32 25.0801 24.65C24.9301 24.07 24.8801 22.65 25.0201 22.08C25.4501 20.08 26.9601 18.68 29.1201 18.28C29.8201 18.14 31.4701 18.2 32.1601 18.38L32.1401 18.4Z" fill="white"/>
</svg>
